<?xml version='1.0' encoding='utf-8'?>
<!DOCTYPE svg>
<!-- Generator: Adobe Illustrator 16.0.4, SVG Export Plug-In . SVG Version: 6.00 Build 0)  -->
<svg xmlns="http://www.w3.org/2000/svg" width="2.68728in" xmlns:xml="http://www.w3.org/XML/1998/namespace" enable-background="new 0 0 193.484 90.125" viewBox="0 0 193.484 90.125"  id="esp32" gorn="0" version="1.1" xml:space="preserve" x="0px" y="0px" height="1.25174in">
    <desc >
        <referenceFile >ESP32WROOM_Naked_Board_breadboard_new.svg</referenceFile>
    </desc>
    <rect width="72.336"  id="board_1_" gorn="0.1" fill="#1F1FCD" x="107.906" y="19.483" height="51.187"/>
    <rect width="48.188" stroke-width="1"  id="sheild" gorn="0.2" stroke="#E3E3E3" fill="#B3B3B3" x="112.146" y="23.068" height="43.739"/>
    <circle  id="dot" gorn="0.3" r="1.281" cx="115.753" cy="27.545" fill="#1F1FCD"/>
    <g  transform="translate(89.520575,-66.898955)">
        <g >
            <g >
                <g  id="logo" gorn="0.4.0.0.0">
                    <path  id="path3351" gorn="0.4.0.0.0.0" d="M39.102,112.901c0.077-2.397,0.878-4.583,2.359-6.447c0.319-0.4,0.95-1.058,1.354-1.407c0.371-0.32,0.956-0.751,1.337-0.984c1.313-0.82,2.797-1.344,4.352-1.551c0.489-0.061,1.426-0.096,1.916-0.069c2.43,0.136,4.688,1.052,6.524,2.645c0.106,0.097,0.195,0.183,0.196,0.203c0.001,0.034-0.481,0.564-0.515,0.565c-0.011,0-0.128-0.098-0.26-0.216c-1.247-1.102-2.96-1.928-4.657-2.248c-0.797-0.149-1.357-0.191-2.218-0.159c-0.694,0.026-1.055,0.067-1.678,0.193c-1.945,0.404-3.776,1.419-5.151,2.861c-1.604,1.683-2.558,3.806-2.746,6.14c-0.038,0.425-0.018,1.366,0.031,1.801c0.255,2.304,1.244,4.362,2.866,5.981l0.241,0.244l-0.265,0.282l-0.268,0.29l-0.114-0.099c-0.056-0.054-0.22-0.22-0.361-0.369c-1.574-1.668-2.565-3.756-2.866-6.052C39.134,114.141,39.094,113.256,39.102,112.901L39.102,112.901z M40.814,112.293c0.041-0.376,0.113-0.823,0.189-1.152l0.06-0.255l0.353-0.43c0.19-0.239,0.359-0.443,0.373-0.457c0.021-0.021,0.068-0.002,0.23,0.108c0.391,0.265,0.896,0.458,1.361,0.523c0.28,0.038,0.766,0.021,1.042-0.037c1.102-0.231,2.01-1.056,2.34-2.112c0.099-0.311,0.136-0.572,0.148-0.96c0.021-0.602,0.103-0.959,0.323-1.452c0.304-0.66,0.782-1.183,1.418-1.542c0.454-0.259,0.947-0.408,1.365-0.422c0.48-0.013,1.229,0.076,1.513,0.182c1.094,0.405,1.892,1.318,2.167,2.482c0.064,0.283,0.093,1.074,0.056,1.533c-0.191,2.238-1.062,4.263-2.536,5.907c-0.733,0.824-1.651,1.547-2.643,2.088c-1.036,0.57-2.189,0.947-3.425,1.129c-0.428,0.062-1.49,0.107-1.9,0.082c-0.566-0.04-1.404-0.153-1.469-0.206c-0.083-0.058-0.48-1.04-0.621-1.507l-0.062-0.223l0.202-0.615c0.117-0.338,0.217-0.621,0.224-0.629c0.007-0.014,0.103,0.012,0.213,0.041c0.414,0.135,0.99,0.236,1.547,0.291c0.335,0.028,1.255-0.012,1.614-0.072c1.139-0.19,2.133-0.603,3.059-1.258c1.717-1.229,2.786-3.146,2.954-5.274c0.059-0.684-0.005-0.913-0.298-1.067c-0.091-0.051-0.132-0.057-0.288-0.05c-0.211,0.007-0.285,0.038-0.416,0.185c-0.111,0.127-0.142,0.251-0.153,0.654c-0.068,1.846-0.996,3.551-2.515,4.63c-1.729,1.223-4.015,1.436-5.938,0.549c-0.431-0.194-0.521-0.252-0.518-0.314C40.785,112.615,40.799,112.458,40.814,112.293L40.814,112.293z M42.231,107.327c0.086-0.617,0.516-1.117,1.112-1.289c0.203-0.063,0.544-0.081,0.758-0.034c0.419,0.079,0.847,0.392,1.044,0.767c0.146,0.274,0.187,0.45,0.191,0.778c-0.006,0.231-0.01,0.301-0.064,0.459c-0.159,0.478-0.495,0.83-0.96,0.991c-0.392,0.143-0.788,0.124-1.177-0.054c-0.396-0.169-0.723-0.54-0.848-0.944C42.242,107.839,42.21,107.479,42.231,107.327L42.231,107.327z M44.052,119.124l-0.012-0.449l0.244-0.016c0.384-0.021,0.961-0.091,1.334-0.146c1.98-0.33,3.894-1.227,5.441-2.559c1.973-1.695,3.288-4.037,3.717-6.619c0.102-0.612,0.141-1.09,0.147-1.834l0.008-0.526l0.728-0.04c0.399-0.021,0.741-0.034,0.759-0.027c0.043,0.018,0.419,0.449,0.615,0.701c0.192,0.252,0.437,0.605,0.596,0.865l0.114,0.188l-0.02,0.191c-0.361,3.76-2.198,7.179-5.136,9.558c-1.774,1.436-3.904,2.422-6.182,2.858c-0.211,0.042-0.406,0.076-0.44,0.077c-0.162,0.006-1.188-0.611-1.702-1.023l-0.189-0.148l-0.01-0.301C44.06,119.715,44.054,119.376,44.052,119.124L44.052,119.124z M49.281,121.635c0.026-0.014,0.176-0.074,0.33-0.135c0.672-0.277,1.623-0.771,2.251-1.168c1.608-1.021,3.007-2.318,4.125-3.842c0.939-1.269,1.688-2.723,2.194-4.256c0.054-0.159,0.108-0.291,0.126-0.291c0.015-0.001,0.146,0.035,0.295,0.084c0.311,0.098,0.279,0.044,0.318,0.527c0.092,1.15-0.095,2.48-0.509,3.664c-0.956,2.717-3.229,4.853-6.022,5.662c-0.776,0.228-1.354,0.316-2.246,0.35c-0.566,0.021-0.669,0.018-0.69-0.011c-0.015-0.019-0.066-0.153-0.12-0.302l-0.104-0.263L49.281,121.635L49.281,121.635z" fill="#E3E3E3"/>
                </g>
            </g>
        </g>
    </g>
    <g  id="text" gorn="0.5">
        <path  d="M119.865,25.946h3.775v2.597h-0.447v-2.125h-1.154v1.888h-0.447v-1.888h-1.278v2.125h-0.447L119.865,25.946L119.865,25.946z" fill="#E3E3E3"/>
        <path  d="M121.138,28.735v0.472c-0.286,0-0.515,0.087-0.685,0.261c-0.174,0.17-0.262,0.397-0.262,0.684c0,0.286,0.063,0.513,0.192,0.683c0.129,0.174,0.301,0.261,0.517,0.261c0.194,0,0.35-0.102,0.465-0.304c0.084-0.149,0.15-0.362,0.199-0.64c0.065-0.369,0.188-0.673,0.367-0.913c0.207-0.273,0.461-0.41,0.764-0.41c0.307,0,0.553,0.12,0.738,0.36c0.188,0.24,0.279,0.561,0.279,0.963c0,0.401-0.109,0.722-0.329,0.962c-0.22,0.24-0.512,0.36-0.876,0.36v-0.472c0.235-0.042,0.428-0.139,0.571-0.292c0.142-0.157,0.211-0.344,0.211-0.559c0-0.257-0.054-0.464-0.161-0.622c-0.107-0.153-0.253-0.229-0.435-0.229c-0.191,0-0.35,0.089-0.479,0.267c-0.11,0.149-0.188,0.344-0.229,0.584c-0.07,0.41-0.178,0.73-0.322,0.962c-0.182,0.302-0.422,0.454-0.721,0.454c-0.355,0-0.64-0.128-0.852-0.385c-0.216-0.261-0.322-0.604-0.322-1.031c0-0.427,0.125-0.771,0.373-1.031C120.392,28.864,120.724,28.735,121.138,28.735z" fill="#E3E3E3"/>
        <path  d="M119.865,32.002h3.775v1.553c0,0.36-0.103,0.648-0.305,0.863c-0.197,0.215-0.466,0.323-0.802,0.323c-0.34,0-0.61-0.107-0.812-0.323c-0.202-0.215-0.305-0.503-0.305-0.863v-1.081h-1.553L119.865,32.002L119.865,32.002z M121.839,32.474v1.081c0,0.215,0.062,0.389,0.188,0.521c0.13,0.128,0.299,0.192,0.508,0.192c0.205,0,0.37-0.064,0.496-0.192c0.125-0.132,0.188-0.307,0.188-0.521v-1.081H121.839z" fill="#E3E3E3"/>
        <path  d="M121.056,35.164h0.423v1.417h-0.423V35.164z" fill="#E3E3E3"/>
        <path  d="M123.64,36.953v0.472l-2.926,0.801l2.926,0.801v0.472l-2.926,0.801l2.926,0.808v0.447l-3.775-1.013V40.07l3.018-0.807l-3.018-0.801V37.99L123.64,36.953z" fill="#E3E3E3"/>
        <path  d="M119.865,41.928h3.775v1.628c0,0.373-0.103,0.671-0.306,0.895c-0.198,0.224-0.467,0.335-0.802,0.335c-0.208,0-0.396-0.054-0.566-0.161c-0.17-0.116-0.29-0.267-0.359-0.453c-0.096,0.137-0.211,0.244-0.349,0.323c-0.145,0.082-0.295,0.124-0.451,0.124l-0.731,0.024c-0.042,0-0.098,0.022-0.168,0.068l-0.043,0.025v-0.473l0.024-0.013c0.091-0.054,0.16-0.08,0.211-0.08l0.708-0.025c0.183,0,0.332-0.08,0.446-0.242c0.107-0.148,0.162-0.327,0.162-0.534V42.4h-1.553L119.865,41.928L119.865,41.928z M121.839,42.4v1.155c0,0.228,0.062,0.412,0.188,0.553c0.13,0.137,0.299,0.205,0.508,0.205c0.205,0,0.37-0.068,0.496-0.205c0.125-0.141,0.188-0.325,0.188-0.553V42.4H121.839z" fill="#E3E3E3"/>
        <path  d="M121.752,45.077c0.594,0,1.068,0.155,1.43,0.466c0.354,0.311,0.533,0.723,0.533,1.236c0,0.513-0.179,0.923-0.533,1.229c-0.36,0.311-0.836,0.467-1.43,0.467c-0.584,0-1.052-0.156-1.402-0.467c-0.354-0.307-0.528-0.716-0.528-1.229c0-0.514,0.176-0.926,0.528-1.236C120.701,45.232,121.168,45.077,121.752,45.077z M121.752,45.55c-0.456,0-0.82,0.111-1.099,0.335c-0.273,0.225-0.41,0.521-0.41,0.896c0,0.368,0.137,0.665,0.41,0.889c0.277,0.224,0.643,0.335,1.099,0.335c0.469,0,0.841-0.111,1.118-0.335c0.281-0.224,0.422-0.521,0.422-0.889c0-0.373-0.141-0.671-0.422-0.896C122.593,45.661,122.22,45.55,121.752,45.55z" fill="#E3E3E3"/>
        <path  d="M121.752,48.768c0.594,0,1.068,0.154,1.43,0.465c0.354,0.312,0.533,0.724,0.533,1.236c0,0.514-0.179,0.924-0.533,1.229c-0.36,0.311-0.836,0.466-1.43,0.466c-0.584,0-1.052-0.155-1.402-0.466c-0.354-0.308-0.528-0.716-0.528-1.229c0-0.513,0.176-0.926,0.528-1.236C120.701,48.922,121.168,48.768,121.752,48.768z M121.752,49.239c-0.456,0-0.82,0.11-1.099,0.335c-0.273,0.224-0.41,0.521-0.41,0.895c0,0.368,0.137,0.665,0.41,0.889c0.277,0.224,0.643,0.336,1.099,0.336c0.469,0,0.841-0.112,1.118-0.336c0.281-0.224,0.422-0.521,0.422-0.889c0-0.373-0.141-0.671-0.422-0.895C122.593,49.352,122.22,49.239,121.752,49.239z" fill="#E3E3E3"/>
        <path  d="M119.865,52.637h3.775v0.59l-2.976,1.181l2.976,1.181v0.59h-3.775v-0.472h2.832l-2.832-1.138V54.24l2.832-1.131h-2.832V52.637z" fill="#E3E3E3"/>
        <path  d="M121.056,56.823h0.423v1.416h-0.423V56.823z" fill="#E3E3E3"/>
        <path  d="M121.044,58.704v0.423c-0.231,0-0.424,0.096-0.578,0.285c-0.147,0.188-0.223,0.406-0.223,0.658c0,0.24,0.068,0.449,0.205,0.628c0.145,0.182,0.326,0.272,0.546,0.272c0.203,0,0.366-0.094,0.491-0.279c0.115-0.174,0.174-0.381,0.174-0.621v-0.329h0.422v0.329c0,0.19,0.058,0.355,0.168,0.496c0.12,0.146,0.271,0.219,0.447,0.219c0.17,0,0.309-0.074,0.416-0.225c0.1-0.137,0.147-0.3,0.147-0.49c0-0.229-0.062-0.424-0.19-0.59c-0.137-0.174-0.31-0.262-0.516-0.262v-0.422c0.317,0,0.588,0.122,0.807,0.366c0.215,0.239,0.323,0.528,0.323,0.862c0,0.314-0.092,0.589-0.273,0.82c-0.187,0.239-0.425,0.359-0.714,0.359c-0.17,0-0.325-0.035-0.466-0.105c-0.149-0.074-0.264-0.18-0.342-0.315c-0.051,0.187-0.161,0.335-0.335,0.446c-0.162,0.107-0.349,0.162-0.561,0.162c-0.335,0-0.617-0.133-0.845-0.397c-0.219-0.261-0.329-0.569-0.329-0.925c0-0.369,0.116-0.688,0.348-0.957C120.405,58.841,120.697,58.704,121.044,58.704z" fill="#E3E3E3"/>
        <path  d="M119.865,61.729c0.359,0,0.697,0.136,1.012,0.404c0.263,0.219,0.506,0.525,0.732,0.919c0.154,0.265,0.291,0.46,0.41,0.584c0.183,0.179,0.377,0.267,0.584,0.267c0.194,0,0.355-0.084,0.483-0.254c0.116-0.162,0.175-0.353,0.175-0.571c0-0.228-0.076-0.423-0.229-0.584c-0.157-0.165-0.348-0.248-0.571-0.248h-0.235v-0.422h0.235c0.34,0,0.629,0.124,0.869,0.372c0.236,0.244,0.354,0.537,0.354,0.882c0,0.336-0.1,0.626-0.298,0.87c-0.212,0.252-0.474,0.379-0.783,0.379c-0.273,0-0.529-0.1-0.771-0.299c-0.199-0.166-0.383-0.396-0.553-0.689l-0.074-0.13c-0.314-0.556-0.621-0.858-0.92-0.913v2.031h-0.422L119.865,61.729L119.865,61.729z" fill="#E3E3E3"/>
    </g>
    <g  id="antenna" gorn="0.6">
        <line stroke-width="2"  y1="57.073" stroke="#000000" stroke-miterlimit="10" y2="57.073" fill="none" x1="163.664" x2="177.867"/>
        <line stroke-width="2"  y1="63.073" stroke="#000000" stroke-miterlimit="10" y2="63.073" fill="none" x1="163.664" x2="177.867"/>
        <line stroke-width="2"  y1="63.964" stroke="#000000" stroke-miterlimit="10" y2="50.494" fill="none" x1="177.867" x2="177.867"/>
        <line stroke-width="2"  y1="50.494" stroke="#000000" stroke-miterlimit="10" y2="50.494" fill="none" x1="178.826" x2="169.784"/>
        <line stroke-width="2"  y1="50.494" stroke="#000000" stroke-miterlimit="10" y2="43.812" fill="none" x1="170.765" x2="170.765"/>
        <line stroke-width="2"  y1="43.812" stroke="#000000" stroke-miterlimit="10" y2="43.812" fill="none" x1="169.784" x2="178.826"/>
        <line stroke-width="2"  y1="43.812" stroke="#000000" stroke-miterlimit="10" y2="37.327" fill="none" x1="177.867" x2="177.867"/>
        <line stroke-width="2"  y1="37.327" stroke="#000000" stroke-miterlimit="10" y2="37.327" fill="none" x1="178.826" x2="169.784"/>
        <line stroke-width="2"  y1="37.327" stroke="#000000" stroke-miterlimit="10" y2="30.105" fill="none" x1="170.765" x2="170.765"/>
        <line stroke-width="2"  y1="30.105" stroke="#000000" stroke-miterlimit="10" y2="30.105" fill="none" x1="169.784" x2="178.826"/>
        <line stroke-width="2"  y1="30.105" stroke="#000000" stroke-miterlimit="10" y2="23.938" fill="none" x1="177.867" x2="177.867"/>
        <line stroke-width="2"  y1="23.938" stroke="#000000" stroke-miterlimit="10" y2="23.938" fill="none" x1="178.826" x2="166.117"/>
        <circle  id="hole_1_" gorn="0.6.12" r="0.812" cx="163.664" cy="57.073" fill="#FEBF10"/>
        <circle  id="hole" gorn="0.6.13" r="0.812" cx="163.664" cy="63.151" fill="#FEBF10"/>
    </g>
    <g  id="pins" gorn="0.7">
        <rect width="2.56"  id="rect513" gorn="0.7.0" fill="#FEBF10" x="157.809" y="19.483" height="2.133"/>
        <rect width="2.557"  id="rect515" gorn="0.7.1" fill="#FEBF10" x="154.199" y="19.483" height="2.133"/>
        <rect width="2.559"  id="rect517" gorn="0.7.2" fill="#FEBF10" x="150.588" y="19.483" height="2.133"/>
        <rect width="2.558"  id="rect519" gorn="0.7.3" fill="#FEBF10" x="146.978" y="19.483" height="2.133"/>
        <rect width="2.556"  id="rect521" gorn="0.7.4" fill="#FEBF10" x="143.366" y="19.483" height="2.133"/>
        <rect width="2.557"  id="rect523" gorn="0.7.5" fill="#FEBF10" x="139.752" y="19.483" height="2.133"/>
        <rect width="2.557"  id="rect525" gorn="0.7.6" fill="#FEBF10" x="136.142" y="19.483" height="2.133"/>
        <rect width="2.562"  id="rect527" gorn="0.7.7" fill="#FEBF10" x="132.53" y="19.483" height="2.133"/>
        <rect width="2.565"  id="rect529" gorn="0.7.8" fill="#FEBF10" x="128.916" y="19.483" height="2.133"/>
        <rect width="2.563"  id="rect531" gorn="0.7.9" fill="#FEBF10" x="125.304" y="19.483" height="2.133"/>
        <rect width="2.562"  id="rect533" gorn="0.7.10" fill="#FEBF10" x="121.695" y="19.483" height="2.133"/>
        <rect width="2.562"  id="rect535" gorn="0.7.11" fill="#FEBF10" x="118.083" y="19.483" height="2.133"/>
        <rect width="2.562"  id="rect537" gorn="0.7.12" fill="#FEBF10" x="114.472" y="19.483" height="2.133"/>
        <rect width="2.558"  id="rect539" gorn="0.7.13" fill="#FEBF10" x="110.864" y="19.483" height="2.133"/>
        <rect width="2.132"  id="rect541" gorn="0.7.14" fill="#FEBF10" x="107.906" y="27.545" height="2.56"/>
        <rect width="2.132"  id="rect543" gorn="0.7.15" fill="#FEBF10" x="107.906" y="31.156" height="2.561"/>
        <rect width="2.132"  id="rect545" gorn="0.7.16" fill="#FEBF10" x="107.906" y="34.769" height="2.559"/>
        <rect width="2.132"  id="rect547" gorn="0.7.17" fill="#FEBF10" x="107.906" y="38.38" height="2.558"/>
        <rect width="2.132"  id="rect549" gorn="0.7.18" fill="#FEBF10" x="107.906" y="41.991" height="2.558"/>
        <rect width="2.132"  id="rect551" gorn="0.7.19" fill="#FEBF10" x="107.906" y="45.602" height="2.562"/>
        <rect width="2.132"  id="rect553" gorn="0.7.20" fill="#FEBF10" x="107.906" y="49.214" height="2.56"/>
        <rect width="2.132"  id="rect555" gorn="0.7.21" fill="#FEBF10" x="107.906" y="52.823" height="2.562"/>
        <rect width="2.132"  id="rect557" gorn="0.7.22" fill="#FEBF10" x="107.906" y="56.434" height="2.563"/>
        <rect width="2.132"  id="rect559" gorn="0.7.23" fill="#FEBF10" x="107.906" y="60.046" height="2.563"/>
        <rect width="2.558"  id="rect561" gorn="0.7.24" fill="#FEBF10" x="110.864" y="68.538" height="2.132"/>
        <rect width="2.562"  id="rect563" gorn="0.7.25" fill="#FEBF10" x="114.472" y="68.538" height="2.132"/>
        <rect width="2.562"  id="rect565" gorn="0.7.26" fill="#FEBF10" x="118.083" y="68.538" height="2.132"/>
        <rect width="2.562"  id="rect567" gorn="0.7.27" fill="#FEBF10" x="121.695" y="68.538" height="2.132"/>
        <rect width="2.563"  id="rect569" gorn="0.7.28" fill="#FEBF10" x="125.304" y="68.538" height="2.132"/>
        <rect width="2.565"  id="rect571" gorn="0.7.29" fill="#FEBF10" x="128.916" y="68.538" height="2.132"/>
        <rect width="2.562"  id="rect573" gorn="0.7.30" fill="#FEBF10" x="132.53" y="68.538" height="2.132"/>
        <rect width="2.557"  id="rect575" gorn="0.7.31" fill="#FEBF10" x="136.142" y="68.538" height="2.132"/>
        <rect width="2.557"  id="rect577" gorn="0.7.32" fill="#FEBF10" x="139.752" y="68.538" height="2.132"/>
        <rect width="2.556"  id="rect579" gorn="0.7.33" fill="#FEBF10" x="143.366" y="68.538" height="2.132"/>
        <rect width="2.558"  id="rect581" gorn="0.7.34" fill="#FEBF10" x="146.978" y="68.538" height="2.132"/>
        <rect width="2.559"  id="rect583" gorn="0.7.35" fill="#FEBF10" x="150.588" y="68.538" height="2.132"/>
        <rect width="2.557"  id="rect585" gorn="0.7.36" fill="#FEBF10" x="154.199" y="68.538" height="2.132"/>
        <rect width="2.56"  id="rect587" gorn="0.7.37" fill="#FEBF10" x="157.81" y="68.538" height="2.132"/>
        <rect width="17.062" display="none"  id="rect589" gorn="0.7.38" fill="#FEBF10" x="128.81" y="37.349" height="17.061"/>
    </g>
</svg>
